<svg width="104" height="104" viewBox="0 0 104 104" fill="none" xmlns="http://www.w3.org/2000/svg">
<g filter="url(#filter0_dd_131_788)">
<path d="M20 16C20 7.16346 27.1634 0 36 0H67.9944C76.831 0 83.9944 7.16344 83.9944 16V47.9944C83.9944 56.831 76.831 63.9944 67.9944 63.9944H36C27.1635 63.9944 20 56.831 20 47.9944V16Z" fill="url(#paint0_linear_131_788)" shape-rendering="crispEdges"/>
<path d="M51.9972 46.7159C61.8933 46.7159 69.9157 38.6936 69.9157 28.7975C69.9157 18.9014 61.8933 10.8791 51.9972 10.8791C42.1012 10.8791 34.0788 18.9014 34.0788 28.7975C34.0788 38.6936 42.1012 46.7159 51.9972 46.7159Z" stroke="white" stroke-width="4.47961" stroke-linecap="round"/>
<path d="M59.6765 38.3967L64.7961 43.5162L74.3952 30.7173" stroke="white" stroke-width="4.47961" stroke-linecap="round" stroke-linejoin="round"/>
<path d="M44.3179 28.7975L48.7975 33.2771L58.3966 23.6779" stroke="white" stroke-width="3.83967" stroke-linecap="round" stroke-linejoin="round"/>
</g>
<defs>
<filter id="filter0_dd_131_788" x="0" y="0" width="103.994" height="103.994" filterUnits="userSpaceOnUse" color-interpolation-filters="sRGB">
<feFlood flood-opacity="0" result="BackgroundImageFix"/>
<feColorMatrix in="SourceAlpha" type="matrix" values="0 0 0 0 0 0 0 0 0 0 0 0 0 0 0 0 0 0 127 0" result="hardAlpha"/>
<feMorphology radius="6" operator="erode" in="SourceAlpha" result="effect1_dropShadow_131_788"/>
<feOffset dy="8"/>
<feGaussianBlur stdDeviation="5"/>
<feComposite in2="hardAlpha" operator="out"/>
<feColorMatrix type="matrix" values="0 0 0 0 0 0 0 0 0 0 0 0 0 0 0 0 0 0 0.1 0"/>
<feBlend mode="normal" in2="BackgroundImageFix" result="effect1_dropShadow_131_788"/>
<feColorMatrix in="SourceAlpha" type="matrix" values="0 0 0 0 0 0 0 0 0 0 0 0 0 0 0 0 0 0 127 0" result="hardAlpha"/>
<feMorphology radius="5" operator="erode" in="SourceAlpha" result="effect2_dropShadow_131_788"/>
<feOffset dy="20"/>
<feGaussianBlur stdDeviation="12.5"/>
<feComposite in2="hardAlpha" operator="out"/>
<feColorMatrix type="matrix" values="0 0 0 0 0 0 0 0 0 0 0 0 0 0 0 0 0 0 0.1 0"/>
<feBlend mode="normal" in2="effect1_dropShadow_131_788" result="effect2_dropShadow_131_788"/>
<feBlend mode="normal" in="SourceGraphic" in2="effect2_dropShadow_131_788" result="shape"/>
</filter>
<linearGradient id="paint0_linear_131_788" x1="20" y1="31.9972" x2="83.9944" y2="31.9972" gradientUnits="userSpaceOnUse">
<stop stop-color="#2B7FFF"/>
<stop offset="1" stop-color="#AD46FF"/>
</linearGradient>
</defs>
</svg>
